<?xml version="1.0" encoding="UTF-8" standalone="no"?>
<svg
   xmlns:dc="http://purl.org/dc/elements/1.1/"
   xmlns:cc="http://creativecommons.org/ns#"
   xmlns:rdf="http://www.w3.org/1999/02/22-rdf-syntax-ns#"
   xmlns:svg="http://www.w3.org/2000/svg"
   xmlns="http://www.w3.org/2000/svg"
   xmlns:sodipodi="http://sodipodi.sourceforge.net/DTD/sodipodi-0.dtd"
   xmlns:inkscape="http://www.inkscape.org/namespaces/inkscape"
   width="8.5in"
   height="11in"
   viewBox="0 0 215.9 279.4"
   version="1.1"
   id="svg838"
   inkscape:version="1.0.1 (0767f8302a, 2020-10-17)"
   sodipodi:docname="ruler.svg">
  <defs
     id="defs832">
    <inkscape:path-effect
       effect="ruler"
       id="path-effect1460"
       is_visible="true"
       lpeversion="1"
       unit="mm"
       mark_distance="0.81681409"
       mark_length="20"
       minor_mark_length="10"
       major_mark_steps="5"
       shift="0"
       offset="0"
       mark_dir="left"
       border_marks="both" />
  </defs>
  <sodipodi:namedview
     id="base"
     pagecolor="#ffffff"
     bordercolor="#666666"
     borderopacity="1.0"
     inkscape:pageopacity="0.0"
     inkscape:pageshadow="2"
     inkscape:zoom="0.98994949"
     inkscape:cx="459.54176"
     inkscape:cy="233.85558"
     inkscape:document-units="mm"
     inkscape:current-layer="layer1"
     inkscape:document-rotation="0"
     showgrid="false"
     inkscape:window-width="1705"
     inkscape:window-height="1199"
     inkscape:window-x="2888"
     inkscape:window-y="827"
     inkscape:window-maximized="0"
     units="in" />
  <metadata
     id="metadata835">
    <rdf:RDF>
      <cc:Work
         rdf:about="">
        <dc:format>image/svg+xml</dc:format>
        <dc:type
           rdf:resource="http://purl.org/dc/dcmitype/StillImage" />
        <dc:title></dc:title>
      </cc:Work>
    </rdf:RDF>
  </metadata>
  <g
     inkscape:label="Layer 1"
     inkscape:groupmode="layer"
     id="layer1">
    <path
       id="path840"
       style="fill:none;fill-rule:evenodd;stroke:#000000;stroke-width:0.22;stroke-miterlimit:4;stroke-dasharray:none;stroke-opacity:1"
       d="m 46.64896,269.08064 c 71.79728,1.8e-4 130.00051,-58.20305 130.00033,-130.00033 C 176.64919,67.283235 118.44603,9.0803135 46.64896,9.0804955 m 0,260.0001445 5e-5,-20 m 0.816759,19.99749 -0.0615,-9.99981 m 0.87828,9.99227 -0.12311,-9.99924 m 0.939826,9.98667 -0.184795,-9.9983 m 1.001418,9.98068 -0.246553,-9.99696 m 1.063051,9.9743 -0.616757,-19.99049 m 1.433099,19.96277 -0.370267,-9.99314 m 1.186423,9.96037 -0.432216,-9.99066 m 1.248152,9.95282 -0.494218,-9.98778 m 1.309903,9.94488 -0.556269,-9.98452 m 1.371672,9.93655 -1.23673,-19.96173 m 2.051818,19.90868 -0.680501,-9.97682 m 1.495243,9.9187 -0.742673,-9.97239 m 1.557037,9.90918 -0.804877,-9.96755 m 1.618831,9.89927 -0.867107,-9.96234 m 1.680618,9.88897 -1.858717,-19.91344 m 2.671753,19.83499 -0.991627,-9.95072 m 1.804156,9.86718 -1.053909,-9.94431 m 1.865899,9.85568 -1.116199,-9.93751 m 1.927618,9.84379 -1.178492,-9.93032 m 1.989307,9.83151 -2.48157,-19.84544 m 3.291748,19.74155 -1.303072,-9.91474 m 2.112582,9.80576 -1.365349,-9.90635 m 2.174158,9.79228 -1.427613,-9.89757 m 2.235689,9.77842 -1.489857,-9.88839 m 2.297166,9.76416 -3.104156,-19.75764 m 3.910668,19.62832 -1.614272,-9.86884 m 2.419952,9.73445 -1.676433,-9.85848 m 2.48125,9.71901 -1.738558,-9.84772 m 2.54248,9.70317 -1.800643,-9.83655 m 2.603637,9.68694 -3.725366,-19.64998 m 4.527399,19.4953 -1.924673,-9.81303 m 2.725714,9.65329 -1.986611,-9.80068 m 2.786627,9.63588 -2.048491,-9.78793 m 2.847449,9.61808 -2.110309,-9.77479 m 2.908178,9.5999 -4.344122,-19.52252 m 5.140869,19.34258 -2.233743,-9.74732 m 3.029336,9.56235 -2.295352,-9.733 m 3.089759,9.543 -2.356882,-9.71829 m 3.150071,9.52327 -2.418331,-9.70318 m 3.21027,9.50314 -4.959389,-19.37536 m 5.750046,19.17031 -2.540968,-9.67179 m 3.330311,9.46174 -2.602148,-9.65551 m 3.390145,9.44047 -2.663231,-9.63884 m 3.449851,9.41881 -2.724213,-9.62178 m 3.509424,9.39677 -5.570181,-19.20867 m 6.353951,18.9787 -2.845859,-9.5865 m 3.628157,9.35157 -2.906517,-9.56829 m 3.687311,9.32841 -2.967058,-9.54969 m 3.746318,9.30487 -3.027481,-9.53071 m 3.805174,9.28095 -6.175563,-19.02268 m 6.951659,18.76801 -3.147956,-9.49159 m 3.922423,9.23201 -3.208001,-9.47147 m 3.980809,9.20699 -3.267913,-9.45097 m 4.039031,9.1816 -3.32769,-9.43009 m 4.097087,9.15584 -6.774656,-18.81765 m 7.542301,18.53854 -3.446823,-9.3872 m 4.212686,9.10323 -3.506174,-9.36519 m 4.270225,9.07638 -3.565376,-9.34281 m 4.327583,9.04917 -3.624426,-9.32006 m 4.38476,9.02161 -7.366644,-18.59388 m 8.125075,18.29062 -3.74206,-9.27345 m 4.498557,8.9654 -3.800638,-9.2496 m 4.555172,8.93677 -3.859053,-9.22538 m 4.611594,8.90779 -3.917302,-9.2008 m 4.66782,8.87846 -7.950765,-18.35172 m 8.699231,18.02463 -4.033291,-9.15054 m 4.779675,8.81874 -4.091026,-9.12488 m 4.835303,8.78837 -4.148588,-9.09886 m 4.890718,8.75765 -4.205964,-9.07248 m 4.945924,8.7266 -8.526316,-18.09149 m 9.264086,17.74093 -4.320175,-9.01865 m 5.055705,8.66345 -4.376992,-8.99121 m 5.110282,8.63138 -4.433637,-8.96342 m 5.164627,8.59897 -4.49007,-8.93528 m 5.21876,8.56622 -9.09266,-17.81357 m 9.819,17.43993 -4.60238,-8.87795 m 5.32636,8.49974 -4.65824,-8.84877 m 5.37981,8.46601 -4.71389,-8.81925 m 5.43305,8.43194 -4.76936,-8.78938 m 5.48605,8.39756 -9.649196,-17.51836 m 10.363416,17.12203 -4.87964,-8.72864 m 5.59135,8.32782 -4.93448,-8.69776 m 5.64365,8.29247 -4.98909,-8.66654 m 5.6957,8.2568 -5.0435,-8.63499 m 5.74752,8.22082 -10.1954,-17.20622 m 10.8968,16.78762 -5.15168,-8.57089 m 5.85044,8.1479 -5.20544,-8.53835 m 5.90152,8.11098 -5.25897,-8.50549 m 5.95236,8.07375 -5.31229,-8.47229 m 6.00295,8.0362 -10.73076,-16.87752 m 11.41867,16.43711 -5.41825,-8.40492 m 6.10338,7.9602 -5.47089,-8.37075 m 6.15322,7.92174 -5.5233,-8.33626 m 6.2028,7.88297 -5.57548,-8.30145 m 6.25212,7.84392 -11.25484,-16.53266 m 11.9286,16.07089 -5.67913,-8.23089 m 6.34998,7.7649 -5.7306,-8.19513 m 6.39852,7.72496 -5.78184,-8.15907 m 6.4468,7.68471 -5.83284,-8.12268 m 6.49481,7.64417 -11.7672,-16.17198 m 12.42617,15.68934 -5.93412,-8.04899 m 6.59005,7.56223 -5.98439,-8.01169 m 6.63726,7.52083 -6.03442,-7.97407 m 6.68421,7.47913 -6.0842,-7.93615 m 6.73088,7.43716 -12.26747,-15.79586 m 12.91101,15.29284 -6.18302,-7.85941 m 6.8234,7.35236 -6.23205,-7.82058 m 6.86925,7.30955 -6.28083,-7.78146 m 6.91483,7.26645 -6.32937,-7.74204 m 6.96013,7.22307 -12.75528,-15.40464 m 13.38278,14.88174 -6.42566,-7.6623 m 7.04988,7.13549 -6.47341,-7.62199 m 7.09433,7.09129 -6.52092,-7.58139 m 7.13851,7.04683 -6.56816,-7.54051 m 7.1824,7.00209 -13.23028,-14.99866 m 13.84115,14.45642 -6.66186,-7.45786 m 7.26932,6.9118 -6.70831,-7.4161 m 7.31236,6.86627 -6.7545,-7.37406 m 7.35509,6.82047 -6.80042,-7.33173 m 7.39755,6.7744 -13.69215,-14.57824 m 14.28579,14.01718 -6.89146,-7.24623 m 7.48158,6.68148 -6.93658,-7.20305 m 7.52316,6.63463 -6.98141,-7.1596 m 7.56443,6.58753 -7.02598,-7.11587 m 7.60542,6.54016 -14.14055,-14.14372 m 14.71638,13.56441 -7.11429,-7.02757 m 7.6865,6.44468 -7.15804,-6.98302 m 7.72659,6.39657 -7.2015,-6.93819 m 7.76638,6.34819 -7.24468,-6.89308 m 7.80586,6.29957 -14.57517,-13.69541 m 15.13265,13.09841 -7.33021,-6.80207 m 7.88393,6.2016 -7.37254,-6.75616 m 7.92251,6.15224 -7.4146,-6.70998 m 7.96078,6.10264 -7.45636,-6.66354 m 7.99875,6.05279 -14.99569,-13.23365 m 15.53424,12.61953 -7.53903,-6.56985 m 8.07374,5.95238 -7.57994,-6.52262 m 8.11078,5.90182 -7.62055,-6.47513 m 8.1475,5.85103 -7.66087,-6.42738 m 8.18391,5.79999 -15.40178,-12.75874 m 15.92088,12.1281 -7.74061,-6.33111 m 8.25577,5.69723 -7.78005,-6.28258 m 8.29123,5.64549 -7.81919,-6.23381 m 8.32637,5.59354 -7.85802,-6.18478 m 8.36119,5.54135 -15.7931,-12.27101 m 16.29224,11.62445 -7.93479,-6.08598 m 8.42987,5.4363 -7.97272,-6.03621 m 8.46372,5.38345 -8.01033,-5.98619 m 8.49724,5.33037 -8.04765,-5.93593 m 8.53045,5.27707 -16.16934,-11.77083 m 16.648,11.10896 -8.12138,-5.83466 m 8.59588,5.16981 -8.15776,-5.78368 m 8.62809,5.11587 -8.19385,-5.73245 m 8.65998,5.0617 -8.22961,-5.68098 m 8.69153,5.00732 -16.53012,-11.25855 m 16.98781,10.58201 -8.3002,-5.57734 m 8.75363,4.89795 -8.33501,-5.52517 m 8.78418,4.84294 -8.36952,-5.47277 m 8.8144,4.78774 -8.4037,-5.42014 m 8.84426,4.73233 -16.8751,-10.73456 m 17.31134,10.044 -8.47108,-5.3142 m 8.90298,4.62091 -8.5043,-5.26089 m 8.93183,4.5649 -8.53718,-5.20736 m 8.96033,4.5087 -8.56973,-5.15361 m 8.98848,4.4523 -17.20391,-10.19928 m 17.61825,9.49536 -8.63385,-5.04546 m 9.04375,4.33894 -8.66542,-4.99105 m 9.07086,4.28197 -8.69664,-4.93644 m 9.09762,4.22482 -8.72753,-4.88161 m 9.12402,4.16749 -17.51618,-9.65316 m 17.90817,8.93655 -8.78831,-4.77134 m 9.17578,4.05227 -8.81819,-4.71589 m 9.20112,3.9944 -8.84772,-4.66024 m 9.22609,3.93635 -8.87691,-4.60439 m 9.25072,3.87813 -17.81152,-9.09669 m 18.18074,8.36809 -8.93427,-4.4921 m 9.29888,3.76119 -8.96241,-4.43567 m 9.32241,3.70247 -8.99022,-4.37904 m 9.34559,3.64358 -9.01768,-4.32222 m 9.3684,3.58453 -18.08956,-8.53041 m 18.43561,7.79053 -9.07153,-4.20802 m 9.41291,3.46596 -9.09792,-4.15064 m 9.4346,3.40645 -9.12396,-4.0931 m 9.45593,3.34679 -9.14963,-4.03537 m 9.47688,3.28698 -18.34991,-7.95493 m 18.67243,7.20448 -9.19992,-3.91939 m 9.51768,3.16692 -9.22451,-3.86114 m 9.53751,3.10668 -9.24874,-3.80274 m 9.55696,3.04631 -9.27261,-3.74416 m 9.57604,2.9858 -18.59221,-7.37087 m 18.89084,6.6106 -9.31924,-3.62654 m 9.61305,2.8644 -9.342,-3.56749 m 9.63098,2.80351 -9.36439,-3.5083 m 9.64853,2.7425 -9.38641,-3.44896 m 9.6657,2.68138 -18.81611,-6.77893 m 19.09053,6.00959 -9.42933,-3.32983 m 9.69888,2.55878 -9.45023,-3.27006 m 9.71488,2.49731 -9.47074,-3.21015 m 9.7305,2.43574 -9.49088,-3.15011 m 9.74573,2.37407 -19.02128,-6.17988 m 19.27121,5.40225 -9.53002,-3.02965 m 9.77502,2.25044 -9.54902,-2.96923 m 9.78908,2.18849 -9.56763,-2.90869 m 9.80274,2.12645 -9.58586,-2.84804 m 9.81601,2.06432 -19.20741,-5.57455 m 19.43259,4.78939 -9.62116,-2.7264 m 9.84137,1.93983 -9.63823,-2.66542 m 9.85345,1.87747 -9.65492,-2.60434 m 9.86515,1.81505 -9.67121,-2.54317 m 9.87644,1.75256 -19.37423,-4.96379 m 19.57444,4.17189 -9.70262,-2.42053 m 9.89783,1.62739 -9.71775,-2.35909 m 9.90793,1.56472 -9.73248,-2.29756 m 9.91763,1.50201 -9.74682,-2.23595 m 9.92694,1.43925 -19.52153,-4.34855 m 19.69661,3.55072 -9.77432,-2.11253 m 9.94435,1.31361 -9.78747,-2.05071 m 9.95244,1.25073 -9.80023,-1.98883 m 9.96016,1.18782 -9.8126,-1.92689 m 9.96746,1.1249 -19.64914,-3.72982 m 19.79893,2.92686 -9.83614,-1.80287 m 9.98087,0.99898 -9.84732,-1.74079 m 9.98697,0.936 -9.8581,-1.67866 m 9.99268,0.87301 -9.86848,-1.6165 m 9.99798,0.81002 -19.75694,-3.10862 m 19.88135,2.30134 -9.88805,-1.49209 m 10.00739,0.68404 -9.89725,-1.42985 m 10.0115,0.62107 -9.90605,-1.36759 m 10.01521,0.5581 -9.91444,-1.30531 m 10.01851,0.49516 -19.84488,-2.48604 m 19.94387,1.67524 -9.93005,-1.18072 m 10.02395,0.36933 -9.93726,-1.11844 m 10.02607,0.30647 -9.94407,-1.05615 m 10.0278,0.24364 -9.95049,-0.99387 m 10.02912,0.18085 -19.91302,-1.86319 m 19.98657,1.04969 -9.96214,-0.86934 m 10.03061,0.0554 -9.96737,-0.80711 m 10.03076,-0.007 -9.97222,-0.7449 m 10.03052,-0.0698 -9.97666,-0.68274 m 10.02989,-0.13234 -19.96145,-1.24119 m 20.00961,0.4258 -9.9844,-0.5585 m 10.02748,-0.25718 -9.98767,-0.49644 m 10.02569,-0.31949 -9.99056,-0.43444 m 10.02351,-0.3817 -9.99306,-0.37249 m 10.02096,-0.44385 -19.99035,-0.6212 m 20.01319,-0.19529 -9.9969,-0.24877 m 10.0147,-0.56785 -9.99825,-0.18701 m 10.01101,-0.62971 -9.99922,-0.12532 m 10.00694,-0.69145 -9.9998,-0.0637 m 10.00249,-0.7531 -20,-0.004 m 19.99766,-0.81245 -9.99982,0.0593 m 9.99246,-0.87611 -9.99927,0.12094 m 9.98688,-0.93766 -9.99834,0.18262 m 9.9809,-0.99925 -9.99702,0.24438 m 9.97453,-1.06088 -19.99062,0.6124 m 19.96308,-1.42875 -9.99322,0.36809 m 9.96063,-1.18425 -9.99075,0.43003 m 9.95309,-1.24597 -9.98789,0.49203 m 9.94517,-1.30773 -9.98464,0.55408 m 9.93684,-1.36949 -19.96199,1.23235 m 19.90913,-2.04745 -9.97697,0.67831 m 9.91902,-1.49307 -9.97254,0.74049 m 9.90952,-1.55486 -9.96773,0.80268 m 9.89962,-1.61665 -9.96252,0.86491 m 9.88933,-1.67844 -19.91385,1.85433 m 19.83558,-2.66738 -9.95093,0.98943 m 9.86757,-1.80198 -9.94454,1.05171 m 9.85609,-1.86372 -9.93776,1.114 m 9.84422,-1.92544 -9.93058,1.1763 m 9.83195,-1.98714 -19.84599,2.47718 m 19.74228,-3.28738 -9.91502,1.30088 m 9.80622,-2.11041 -9.90666,1.36315 m 9.79277,-2.17199 -9.89789,1.42542 m 9.77892,-2.23352 -9.88872,1.48766 m 9.76466,-2.295 -19.75832,3.09978 m 19.62919,-3.90632 -9.86921,1.61208 m 9.73499,-2.41779 -9.85885,1.67425 m 9.71956,-2.47909 -9.8481,1.73637 m 9.70373,-2.54033 -9.83695,1.79846 m 9.68752,-2.60148 -19.65081,3.72099 m 19.49631,-4.52306 -9.81346,1.92249 m 9.6539,-2.72357 -9.80113,1.98443 m 9.63651,-2.78448 -9.78839,2.04631 m 9.61872,-2.84531 -9.77527,2.10813 m 9.60055,-2.90604 -19.52348,4.33977 m 19.34372,-5.13655 -9.74782,2.23157 m 9.56303,-3.02721 -9.73352,2.29318 m 9.54369,-3.08763 -9.71881,2.35472 m 9.52397,-3.14795 -9.70372,2.41617 m 9.50385,-3.20815 -19.37646,4.95506 m 19.17159,-5.74576 -9.67235,2.5388 m 9.46248,-3.32819 -9.65609,2.59999 m 9.44122,-3.38804 -9.63943,2.66108 m 9.41958,-3.44775 -9.62239,2.72207 m 9.39756,-3.50733 -19.20991,5.56589 m 18.98011,-6.34971 -9.58714,2.84372 m 9.35239,-3.62607 -9.56894,2.90438 m 9.32923,-3.68523 -9.55035,2.96493 m 9.3057,-3.744244 -9.53138,3.025354 m 9.2818,-3.803103 -19.02406,6.171313 m 18.76956,-6.947465 -9.4923,3.145835 m 9.23289,-3.920361 -9.47218,3.205891 m 9.20787,-3.978758 -9.45169,3.265804 m 9.1825,-4.036982 -9.43083,3.325586 m 9.15675,-4.095044 -18.81916,6.770454 m 18.54022,-7.538162 -9.38796,3.44473 m 9.10416,-4.210656 -9.36597,3.504085 m 9.07734,-4.2682 -9.34361,3.563292 m 9.05014,-4.325564 -9.32087,3.622347 m 9.02258,-4.382748 -18.59552,7.362497 m 18.29243,-8.120995 -9.27429,3.739992 m 8.96641,-4.496558 -9.25045,3.798576 m 8.93779,-4.55318 -9.22624,3.856997 m 8.90882,-4.609608 -9.20168,3.915251 m 8.8795,-4.665841 -18.35348,7.946676 m 18.02657,-8.695215 -9.15145,4.031253 m 8.81981,-4.777711 -9.1258,4.088994 m 8.78945,-4.833342 -9.09978,4.146558 m 8.75874,-4.888766 -9.07342,4.203942 m 8.7277,-4.943983 -18.09339,8.522292 m 17.743,-9.260135 -9.01961,4.318165 m 8.66457,-5.053782 -8.99218,4.374998 m 8.63251,-5.10836 -8.9644,4.431641 m 8.60011,-5.16272 -8.93627,4.488093 m 8.56738,-5.21686 -17.8156,9.088702 m 17.44212,-9.815129 -8.87897,4.600413 m 8.50092,-5.324471 -8.84981,4.656277 m 8.46721,-5.377939 -8.8203,4.71194 m 8.43315,-5.431177 -8.79044,4.7674 m 8.39877,-5.484185 -17.5205,9.645313 m 17.12433,-10.359618 -8.72971,4.877706 m 8.32905,-5.589503 -8.69885,4.932545 m 8.29372,-5.641807 -8.66764,4.987175 m 8.25806,-5.693875 -8.63611,5.041591 M 158.58447,72.9305 141.376,83.122086 m 16.79003,-10.89308 -8.57203,5.149778 m 8.1492,-5.848627 -8.53951,5.203544 m 8.11228,-5.899723 -8.50664,5.25709 m 8.07506,-5.950572 -8.47346,5.310414 m 8.03753,-6.001171 -16.8799,10.727027 m 16.43964,-11.415035 -8.40612,5.416388 m 7.96155,-6.101618 -8.37196,5.469034 m 7.9231,-6.151461 -8.33748,5.52145 m 7.88434,-6.201049 -8.30268,5.573637 m 7.8453,-6.25038 -16.53514,11.251182 m 16.07352,-11.925044 -8.23214,5.677311 m 7.7663,-6.348266 -8.19639,5.728794 m 7.72636,-6.396817 -8.16034,5.780041 m 7.68613,-6.445105 -8.12396,5.831048 m 7.6456,-6.49313 -16.17458,11.763632 m 15.69208,-12.422704 -8.0503,5.932341 m 7.56368,-6.58838 -8.013,5.982623 m 7.52229,-6.635603 -7.9754,6.03266 m 7.48061,-6.682556 -7.93749,6.082451 m 7.43864,-6.729238 -15.79856,12.263988 m 15.29568,-12.907641 -7.86077,6.181287 m 7.35386,-6.821783 -7.82195,6.230331 m 7.31106,-6.867644 -7.78284,6.279122 m 7.26797,-6.913228 -7.74343,6.32766 m 7.2246,-6.958534 -15.40745,12.751886 m 14.88469,-13.379506 -7.66372,6.423971 m 7.13705,-7.04831 -7.62342,6.471739 m 7.09286,-7.092776 -7.58284,6.519251 m 7.0484,-7.136959 -7.54195,6.566501 m 7.00367,-7.180859 -15.00156,13.226981 m 14.45945,-13.837963 -7.45932,6.660217 m 6.91341,-7.267805 -7.41758,6.70668 m 6.86788,-7.310842 -7.37555,6.752877 m 6.82209,-7.353596 -7.33323,6.798808 m 6.77602,-7.396056 -14.58125,13.688939 m 14.02033,-14.282701 -7.24774,6.889863 m 6.68312,-7.480107 -7.20458,6.934986 m 6.63629,-7.521695 -7.16114,6.979838 m 6.58919,-7.562985 -7.11741,7.024416 m 6.54184,-7.603981 -14.14683,14.137438 m 13.56765,-14.713399 -7.02915,7.112748 m 6.44638,-7.685081 -6.9846,7.156499 m 6.39827,-7.72518 -6.93977,7.199971 m 6.3499,-7.764982 -6.89468,7.243165 m 6.30129,-7.80448 -13.69862,14.572156 m 13.10174,-15.129758 -6.80368,7.328709 m 6.20333,-7.882569 -6.75777,7.371057 m 6.15397,-7.921158 -6.7116,7.41312 m 6.10438,-7.959437 -6.66517,7.454896 m 6.05455,-7.997414 -13.23695,14.992773 m 12.62295,-15.531462 -6.57151,7.537588 m 5.95415,-8.072431 -6.52429,7.578499 m 5.90361,-8.109475 -6.47681,7.61912 m 5.85282,-8.146207 -6.42906,7.659448 m 5.80179,-8.182624 -12.76213,15.398964 m 12.1316,-15.918209 -6.33281,7.739221 m 5.69905,-8.254515 -6.2843,7.778664 m 5.64732,-8.289984 -6.23553,7.817808 m 5.59538,-8.325135 -6.18652,7.856654 m 5.5432,-8.359967 -12.2745,15.790398 m 11.62804,-16.289676 -6.08773,7.933442 m 5.43817,-8.428666 -6.03797,7.971382 m 5.38531,-8.462531 -5.98795,8.009018 m 5.33224,-8.496072 -5.9377,8.046347 m 5.27895,-8.529286 -11.77441,16.166738 m 11.11264,-16.645543 -5.83646,8.120082 m 5.17172,-8.594731 -5.78548,8.156484 m 5.11777,-8.62696 -5.73426,8.192576 m 5.06361,-8.658858 -5.6828,8.228353 m 5.00925,-8.690423 -11.26221,16.527634 m 10.58577,-16.985471 -5.57917,8.298964 m 4.89987,-8.75255 -5.52701,8.333794 m 4.84489,-8.78311 -5.47462,8.368305 m 4.78968,-8.813332 -5.422,8.402495 m 4.73429,-8.843215 -10.7383,16.872728 m 10.04783,-17.309121 -5.31607,8.469909 m 4.62288,-8.901958 -5.26277,8.503129 m 4.56688,-8.930816 -5.20925,8.536024 m 4.51068,-8.959329 -5.15551,8.56859 m 4.4543,-8.987497 -10.2031,17.201654 m 9.49926,-17.616144 -5.04736,8.632733 m 4.34094,-9.04279 -4.99298,8.664307 m 4.28399,-9.069911 -4.93837,8.695547 m 4.22684,-9.096682 -4.88355,8.72645 m 4.16951,-9.1231 -9.657045,17.514037 m 8.940525,-17.906183 -4.77329,8.787248 m 4.05431,-9.174874 -4.71785,8.817137 m 3.99644,-9.200226 -4.6622,8.846684 m 3.9384,-9.225221 -4.60637,8.875889 m 3.88019,-9.249856 -9.100645,17.809498 m 8.372125,-18.178879 -4.49408,8.933262 m 3.76325,-9.298042 -4.437656,8.961429 m 3.704536,-9.321592 -4.381033,8.989247 m 3.645653,-9.344777 -4.324219,9.016713 m 3.586609,-9.367595 -8.534439,18.087656 m 7.794639,-18.433874 -4.210042,9.070589 m 3.468062,-9.412129 -4.152676,9.096995 m 3.40855,-9.433842 -4.095126,9.123044 m 3.348891,-9.455184 -4.037404,9.148736 m 3.289086,-9.476153 -7.959015,18.348135 m 7.208642,-18.670817 -3.92144,9.199039 m 3.169042,-9.51697 -3.863203,9.223647 m 3.10881,-9.536815 -3.8048,9.247892 m 3.048441,-9.556282 -3.746233,9.271771 m 2.987939,-9.575372 -7.375012,18.590568 m 6.614812,-18.889364 -3.628621,9.318428 m 2.866546,-9.612409 -3.569581,9.341204 m 2.805661,-9.630356 -3.510391,9.363608 m 2.744656,-9.647919 -3.451051,9.38564 m 2.683531,-9.665099 -6.78313,18.814599 m 6.013857,-19.089192 -3.331938,9.428584 m 2.560942,-9.698302 -3.272171,9.449492 m 2.499482,-9.714322 -3.212268,9.470024 m 2.437917,-9.729955 -3.152231,9.490176 m 2.37625,-9.745198 -6.184132,19.019897 m 5.406552,-19.27 -3.031775,9.529341 m 2.252626,-9.774514 -2.971361,9.548351 m 2.190674,-9.788585 -2.910827,9.566979 m 2.128635,-9.802263 -2.850178,9.585222 m 2.066512,-9.815548 -5.578834,19.206161 m 4.793725,-19.431519 -2.728548,9.620552 m 1.942027,-9.840934 -2.667573,9.637637 m 1.879673,-9.853035 -2.606497,9.654335 m 1.817248,-9.864739 -2.545323,9.670642 m 1.754759,-9.876046 -4.968113,19.373122 m 4.176264,-19.573518 -2.4227,9.702088 m 1.629599,-9.897469 -2.361257,9.717225 m 1.566935,-9.907584 -2.299731,9.73197 m 1.504222,-9.9173 -2.238129,9.746322 m 1.441463,-9.926617 -4.352903,19.52056 m 3.555112,-19.695814 -2.114703,9.773844 m 1.315822,-9.944052 -2.052891,9.787014 m 1.252949,-9.95217 -1.991015,9.799789 m 1.190046,-9.959889 -1.929081,9.812168 m 1.127117,-9.967207 -3.734189,19.648304 m 2.931263,-19.798277 -1.805058,9.835739 m 1.001201,-9.980644 -1.742976,9.84693 m 0.938221,-9.986762 -1.680854,9.857725 m 0.875234,-9.992481 -1.618695,9.868122 m 0.812242,-9.9978 -3.113007,19.756245 m 2.305753,-19.880841 -1.494284,9.887725 m 0.686262,-10.007238 -1.432041,9.896931 m 0.623283,-10.01136 -1.369779,9.905741 m 0.560318,-10.015083 -1.307503,9.914153 M 63.001005,10.098993 60.510573,29.943331 M 62.190234,9.9998261 61.007311,19.929614 M 61.378858,9.9057473 60.258228,19.842758 M 60.566907,9.8167567 59.508567,19.760595 M 59.754415,9.7328537 58.758358,19.683124 M 58.941414,9.6540376 57.073839,29.566651 M 58.127935,9.5803071 57.256401,19.542256 M 57.314012,9.5116607 56.50471,19.478858 M 56.499677,9.4480964 55.752579,19.42015 M 55.68496,9.3896119 55.000037,19.366128 M 54.869895,9.3362045 53.624328,29.297381 M 54.054514,9.2878712 53.49383,19.27214 M 53.238848,9.2446084 52.740218,19.232169 M 52.422929,9.2064123 51.986305,19.196876 M 51.606788,9.1732788 51.232116,19.166257 M 50.790458,9.1452032 50.1649,29.135418 M 49.97397,9.1221806 49.723021,19.119031 M 49.157355,9.1042057 48.968169,19.102416 M 48.340644,9.0912728 48.213149,19.09046 M 47.52387,9.0833757 47.457989,19.083159 M 46.707062,9.0805081 46.698365,29.080506 m -0.04941,-20.0000105 5.1e-5,19.9999995"
       sodipodi:nodetypes="ccc"
       inkscape:path-effect="#path-effect1460"
       inkscape:original-d="m 46.64896,269.08064 c 71.79728,1.8e-4 130.00051,-58.20305 130.00033,-130.00033 C 176.64919,67.283235 118.44603,9.0803135 46.64896,9.0804955" />
  </g>
</svg>
