<?xml version="1.0" encoding="UTF-8" standalone="no"?>
<svg
   xmlns:dc="http://purl.org/dc/elements/1.1/"
   xmlns:cc="http://creativecommons.org/ns#"
   xmlns:rdf="http://www.w3.org/1999/02/22-rdf-syntax-ns#"
   xmlns:svg="http://www.w3.org/2000/svg"
   xmlns="http://www.w3.org/2000/svg"
   xmlns:xlink="http://www.w3.org/1999/xlink"
   xmlns:sodipodi="http://sodipodi.sourceforge.net/DTD/sodipodi-0.dtd"
   xmlns:inkscape="http://www.inkscape.org/namespaces/inkscape"
   width="210mm"
   height="297mm"
   viewBox="0 0 210 297"
   version="1.1"
   id="svg1023"
   inkscape:version="1.0.1 (0767f8302a, 2020-10-17)"
   sodipodi:docname="base.svg">
  <defs
     id="defs1017">
    <marker
       id="DistanceX"
       orient="auto"
       refX="0.0"
       refY="0.0"
       style="overflow:visible">
      <path
         d="M 3,-3 L -3,3 M 0,-5 L  0,5"
         style="stroke:#000000; stroke-width:0.5"
         id="path1096" />
    </marker>
    <pattern
       id="Hatch"
       patternUnits="userSpaceOnUse"
       width="8"
       height="8"
       x="0"
       y="0">
      <path
         d="M8 4 l-4,4"
         stroke="#000000"
         stroke-width="0.25"
         linecap="square"
         id="path1099" />
      <path
         d="M6 2 l-4,4"
         stroke="#000000"
         stroke-width="0.25"
         linecap="square"
         id="path1101" />
      <path
         d="M4 0 l-4,4"
         stroke="#000000"
         stroke-width="0.25"
         linecap="square"
         id="path1103" />
    </pattern>
    <symbol
       id="SKETCH" />
  </defs>
  <sodipodi:namedview
     id="base"
     pagecolor="#ffffff"
     bordercolor="#666666"
     borderopacity="1.0"
     inkscape:pageopacity="0.0"
     inkscape:pageshadow="2"
     inkscape:zoom="0.35"
     inkscape:cx="400"
     inkscape:cy="560"
     inkscape:document-units="mm"
     inkscape:current-layer="layer1"
     inkscape:document-rotation="0"
     showgrid="false"
     inkscape:window-width="1080"
     inkscape:window-height="1199"
     inkscape:window-x="2335"
     inkscape:window-y="620"
     inkscape:window-maximized="0" />
  <metadata
     id="metadata1020">
    <rdf:RDF>
      <cc:Work
         rdf:about="">
        <dc:format>image/svg+xml</dc:format>
        <dc:type
           rdf:resource="http://purl.org/dc/dcmitype/StillImage" />
        <dc:title></dc:title>
      </cc:Work>
    </rdf:RDF>
  </metadata>
  <g
     inkscape:label="Layer 1"
     inkscape:groupmode="layer"
     id="layer1">
    <g
       inkscape:label="0"
       id="g1139"
       transform="matrix(0.26458333,0,0,0.26458333,-86.178571,-386.20238)">
      <path
         d="m 377.95276,1122.5197 a 377.95276,377.95276 0 1 0 -755.90552,0 377.95276,377.95276 0 1 0 755.90552,0 z"
         style="fill:none;stroke:#000000"
         id="path1109" />
      <path
         d="m 37.795276,1122.5197 a 37.795276,37.795276 0 1 0 -75.590552,0 37.795276,37.795276 0 1 0 75.590552,0 z"
         style="fill:none;stroke:#000000"
         id="path1111" />
      <path
         d="m 56.692913,1073.3858 a 7.559055,7.559055 0 1 0 -15.11811,0 7.559055,7.559055 0 1 0 15.11811,0 z"
         style="fill:none;stroke:#000000"
         id="path1113" />
      <path
         d="m 66.141732,1063.937 a 7.559055,7.559055 0 1 0 -15.11811,0 7.559055,7.559055 0 1 0 15.11811,0 z"
         style="fill:none;stroke:#000000"
         id="path1115" />
      <path
         d="m 98.910236,1033.4362 a 9.826772,9.826772 0 1 0 -19.653543,0 9.826772,9.826772 0 1 0 19.653543,0 z"
         style="fill:none;stroke:#000000"
         id="path1117" />
      <path
         d="m -79.256693,1033.4362 a 9.826772,9.826772 0 1 0 -19.653543,0 9.826772,9.826772 0 1 0 19.653543,0 z"
         style="fill:none;stroke:#000000"
         id="path1119" />
      <path
         d="m -51.023622,1063.937 a 7.559055,7.559055 0 1 0 -15.11811,0 7.559055,7.559055 0 1 0 15.11811,0 z"
         style="fill:none;stroke:#000000"
         id="path1121" />
      <path
         d="m -41.574803,1073.3858 a 7.559055,7.559055 0 1 0 -15.11811,0 7.559055,7.559055 0 1 0 15.11811,0 z"
         style="fill:none;stroke:#000000"
         id="path1123" />
      <path
         d="m 98.910236,1211.6032 a 9.826772,9.826772 0 1 0 -19.653543,0 9.826772,9.826772 0 1 0 19.653543,0 z"
         style="fill:none;stroke:#000000"
         id="path1125" />
      <path
         d="m 66.141732,1181.1024 a 7.559055,7.559055 0 1 0 -15.11811,0 7.559055,7.559055 0 1 0 15.11811,0 z"
         style="fill:none;stroke:#000000"
         id="path1127" />
      <path
         d="m 56.692913,1171.6535 a 7.559055,7.559055 0 1 0 -15.11811,0 7.559055,7.559055 0 1 0 15.11811,0 z"
         style="fill:none;stroke:#000000"
         id="path1129" />
      <path
         d="m -41.574803,1171.6535 a 7.559055,7.559055 0 1 0 -15.11811,0 7.559055,7.559055 0 1 0 15.11811,0 z"
         style="fill:none;stroke:#000000"
         id="path1131" />
      <path
         d="m -51.023622,1181.1024 a 7.559055,7.559055 0 1 0 -15.11811,0 7.559055,7.559055 0 1 0 15.11811,0 z"
         style="fill:none;stroke:#000000"
         id="path1133" />
      <path
         d="m -79.256693,1211.6032 a 9.826772,9.826772 0 1 0 -19.653543,0 9.826772,9.826772 0 1 0 19.653543,0 z"
         style="fill:none;stroke:#000000"
         id="path1135" />
      <use
         xlink:href="#SKETCH"
         id="use1137"
         x="0"
         y="0"
         width="100%"
         height="100%" />
    </g>
  </g>
</svg>
