<?xml version="1.0" encoding="UTF-8" standalone="no"?>
<svg
   xmlns:dc="http://purl.org/dc/elements/1.1/"
   xmlns:cc="http://creativecommons.org/ns#"
   xmlns:rdf="http://www.w3.org/1999/02/22-rdf-syntax-ns#"
   xmlns:svg="http://www.w3.org/2000/svg"
   xmlns="http://www.w3.org/2000/svg"
   xmlns:sodipodi="http://sodipodi.sourceforge.net/DTD/sodipodi-0.dtd"
   xmlns:inkscape="http://www.inkscape.org/namespaces/inkscape"
   width="210mm"
   height="297mm"
   viewBox="0 0 210 297"
   version="1.1"
   id="svg8"
   inkscape:version="1.0.1 (0767f8302a, 2020-10-17)"
   sodipodi:docname="ruler.svg">
  <defs
     id="defs2">
    <inkscape:path-effect
       effect="ruler"
       id="path-effect875"
       is_visible="true"
       lpeversion="1"
       unit="mm"
       mark_distance="0.78539816"
       mark_length="14"
       minor_mark_length="7"
       major_mark_steps="4"
       shift="0"
       offset="0"
       mark_dir="right"
       border_marks="both" />
  </defs>
  <sodipodi:namedview
     id="base"
     pagecolor="#ffffff"
     bordercolor="#666666"
     borderopacity="1.0"
     inkscape:pageopacity="0.0"
     inkscape:pageshadow="2"
     inkscape:zoom="1.979899"
     inkscape:cx="323.87724"
     inkscape:cy="606.50041"
     inkscape:document-units="mm"
     inkscape:current-layer="layer1"
     inkscape:document-rotation="0"
     showgrid="false"
     inkscape:window-width="3786"
     inkscape:window-height="2096"
     inkscape:window-x="1134"
     inkscape:window-y="27"
     inkscape:window-maximized="1" />
  <metadata
     id="metadata5">
    <rdf:RDF>
      <cc:Work
         rdf:about="">
        <dc:format>image/svg+xml</dc:format>
        <dc:type
           rdf:resource="http://purl.org/dc/dcmitype/StillImage" />
        <dc:title></dc:title>
      </cc:Work>
    </rdf:RDF>
  </metadata>
  <g
     inkscape:label="Layer 1"
     inkscape:groupmode="layer"
     id="layer1">
    <path
       id="path10"
       style="fill:none;fill-rule:evenodd;stroke:#000000;stroke-width:0.065;stroke-miterlimit:4;stroke-dasharray:none;stroke-opacity:1"
       d="m 204.81279,144.20338 c 0,26.52165 -10.53568,51.95704 -29.28932,70.71068 -18.75364,18.75364 -44.18903,29.28932 -70.71068,29.28932 -26.521649,0 -51.95704,-10.53568 -70.710678,-29.28932 C 15.348474,196.16042 4.8127899,170.72503 4.8127899,144.20338 4.812791,117.68173 15.348475,92.246341 34.102113,73.492704 52.855751,54.739067 78.291142,44.203384 104.81279,44.203384 c 26.52165,0 51.95704,10.535683 70.71068,29.28932 18.75363,18.753637 29.28932,44.189026 29.28932,70.710676 h -14 m 13.99692,0.78539 -6.99979,-0.055 m 6.99053,0.84032 -6.99913,-0.10995 m 6.98371,0.8952 -6.99805,-0.16492 m 6.97647,0.95002 -13.9931,-0.43975 m 13.96534,1.22465 -6.9946,-0.27482 m 6.96069,1.05949 -6.99223,-0.32975 m 6.95215,1.11412 -6.98942,-0.38465 m 6.94318,1.16868 -13.97237,-0.87907 m 13.91998,1.66272 -6.98252,-0.49439 m 6.92397,1.2776 -6.97842,-0.54921 m 6.91373,1.33194 -6.97389,-0.60401 m 6.90305,1.3862 -13.93787,-1.31752 m 13.86088,2.09914 -6.96354,-0.71348 m 6.88043,1.49446 -6.95773,-0.76814 m 6.86848,1.54845 -6.95148,-0.82276 m 6.8561,1.60234 -13.88961,-1.75466 m 13.78811,2.53347 -6.93769,-0.93185 m 6.83009,1.70984 -6.93017,-0.98631 m 6.81645,1.76343 -6.92221,-1.0407 m 6.80239,1.81691 -13.82763,-2.19009 m 13.70173,2.96532 -6.90501,-1.1493 m 6.77301,1.92353 -6.89576,-1.2035 m 6.75769,1.97666 -6.8861,-1.25762 m 6.74197,2.02968 -13.75203,-2.62334 m 13.60183,3.39424 -6.8655,-1.36563 m 6.70925,2.13533 -6.85456,-1.41951 m 6.69227,2.18796 -6.8432,-1.47331 m 6.67489,2.24045 -13.66284,-3.054 m 13.4885,3.81981 -6.81921,-1.58061 m 6.63886,2.34502 -6.80659,-1.63412 m 6.62025,2.39709 -6.79355,-1.68753 m 6.60122,2.44901 -13.56017,-3.48166 m 13.36186,4.24161 -6.7662,-1.79403 m 6.56193,2.55239 -6.7519,-1.84711 m 6.54168,2.60385 -6.73718,-1.90008 m 6.52103,2.65515 -13.44411,-3.90587 m 13.22203,4.65922 -6.70651,-2.00568 m 6.47852,2.75725 -6.69055,-2.05828 m 6.45667,2.80805 -6.67418,-2.11077 m 6.43441,2.85867 -13.31479,-4.32624 m 13.06916,5.07224 -6.6402,-2.21534 m 6.38872,2.95938 -6.6226,-2.26742 m 6.36528,3.00947 -6.60459,-2.31937 m 6.34145,3.05937 -13.17233,-4.74233 m 12.90338,5.48025 -6.56734,-2.42282 m 6.29261,3.15859 -6.54811,-2.47432 m 6.26761,3.20792 -6.52847,-2.52567 m 6.24222,3.25705 -13.01687,-5.15375 m 12.72488,5.88285 -6.488,-2.62791 m 6.19029,3.35469 -6.46715,-2.67878 m 6.16375,3.40321 -6.44592,-2.7295 m 6.13683,3.45152 -12.84856,-5.56007 m 12.53382,6.27964 -6.40225,-2.83041 m 6.08186,3.54749 -6.37983,-2.8806 m 6.05382,3.59513 -6.357,-2.93061 m 6.02539,3.64257 -12.66758,-5.96091 m 12.33038,6.67024 -6.31018,-3.03011 m 5.96743,3.73677 -6.2862,-3.07958 m 5.9379,3.78352 -6.26181,-3.12885 m 5.908,3.83004 -12.47409,-6.35587 m 12.11478,7.05426 -6.21189,-3.22682 m 5.84711,3.92236 -6.18636,-3.27551 m 5.81613,3.96817 -6.16044,-3.324 m 5.78478,4.01373 -12.2683,-6.74455 m 11.88723,7.4313 -6.10747,-3.42034 m 5.72102,4.10409 -6.08042,-3.46821 m 5.68861,4.14889 -6.05299,-3.51586 m 5.65585,4.19345 -12.05039,-7.12658 m 11.64794,7.80103 -5.99702,-3.6105 m 5.58929,4.28177 -5.96848,-3.65749 m 5.55548,4.32553 -5.93957,-3.70425 m 5.52134,4.36903 -11.82059,-7.50158 m 11.39716,8.16305 -5.88066,-3.79709 m 5.45204,4.45522 -5.85066,-3.84316 m 5.41688,4.4979 -5.82029,-3.88899 m 5.38139,4.54031 -11.57913,-7.86917 m 11.13512,8.51701 -5.75848,-3.97993 m 5.3094,4.62427 -5.72705,-4.02503 m 5.27293,4.66583 -5.69526,-4.06989 m 5.23611,4.7071 -11.32624,-8.229 m 10.8621,8.86258 -5.63063,-4.15885 m 5.16154,4.78876 -5.5978,-4.20294 m 5.12377,4.82915 -5.56461,-4.24677 m 5.08567,4.86925 -11.06217,-8.5807 m 10.57836,9.19938 -5.49722,-4.33365 m 5.00857,4.94853 -5.46301,-4.3767 m 4.96954,4.98771 -5.42847,-4.41947 m 4.93022,5.02659 -10.78718,-8.92394 m 10.28418,9.52713 -5.35838,-4.50419 m 4.85066,5.1034 -5.32285,-4.54613 m 4.81043,5.14135 -5.28697,-4.5878 m 4.7699,5.17897 -10.50156,-9.25837 m 9.97986,9.84546 -5.21426,-4.67028 m 4.68796,5.25325 -5.17742,-4.71109 m 4.64656,5.28991 -5.14026,-4.7516 m 4.60487,5.32624 -10.20556,-9.58366 m 9.66568,10.15407 -5.06499,-4.83175 m 4.52064,5.39791 -5.02688,-4.87139 m 4.4781,5.43325 -4.98847,-4.91072 m 4.4353,5.46826 -9.8995,-9.8995 m 9.34196,10.45267 -4.91072,-4.98847 m 4.34886,5.53725 -4.87139,-5.02688 m 4.30523,5.57123 -4.83175,-5.06499 m 4.26134,5.60487 -9.58366,-10.20556 m 9.00902,10.74095 -4.7516,-5.14026 m 4.17278,5.67112 -4.71109,-5.17742 m 4.12812,5.70372 -4.67028,-5.21426 m 4.08319,5.73596 -9.25837,-10.50156 m 8.6672,11.01863 -4.5878,-5.28697 m 3.99259,5.79939 -4.54614,-5.32285 m 3.94692,5.83057 -4.50419,-5.35838 m 3.901,5.86138 -8.92394,-10.78718 m 8.31682,11.28543 -4.41947,-5.42847 m 3.80846,5.92194 -4.3767,-5.46301 m 3.76183,5.95166 -4.33366,-5.49722 m 3.71497,5.98103 -8.5807,-11.06217 m 7.95823,11.54111 -4.24678,-5.56462 m 3.62056,6.03865 -4.20294,-5.5978 m 3.57303,6.06689 -4.15885,-5.63063 m 3.52527,6.09477 -8.229,-11.32624 m 7.59179,11.78538 -4.06989,-5.69525 m 3.4291,6.14938 -4.02504,-5.72705 m 3.3807,6.17613 -3.97994,-5.75848 m 3.33209,6.20249 -7.86917,-11.57913 m 7.21785,12.01803 -3.88899,-5.82029 m 3.23425,6.25407 -3.84316,-5.85066 m 3.18503,6.27928 -3.79709,-5.88066 m 3.13562,6.30409 -7.50158,-11.82059 m 6.8368,12.23882 -3.70425,-5.93957 m 3.03621,6.35257 -3.65749,-5.96848 m 2.98622,6.37621 -3.6105,-5.99702 m 2.93605,6.39947 -7.12658,-12.05039 m 6.44899,12.44753 -3.51586,-6.05299 m 2.83518,6.4448 -3.46821,-6.08042 m 2.78446,6.46687 -3.42034,-6.10747 m 2.73359,6.48854 -6.74455,-12.2683 m 6.05482,12.64396 -3.324,-6.16044 m 2.63134,6.53067 -3.27551,-6.18636 m 2.57997,6.55114 -3.22682,-6.21189 m 2.52843,6.5712 -6.35587,-12.47409 m 5.65468,12.8279 -3.12885,-6.26181 m 2.42491,6.61011 -3.07958,-6.2862 m 2.37292,6.62895 -3.03011,-6.31018 m 2.32078,6.64738 -5.96091,-12.66758 m 5.24895,12.99919 -2.93061,-6.35701 m 2.21608,6.68302 -2.8806,-6.37983 m 2.16352,6.70022 -2.83041,-6.40225 m 2.11084,6.71699 -5.56007,-12.84856 m 4.83805,13.15765 -2.72949,-6.44592 m 2.00506,6.74932 -2.67878,-6.46715 m 1.952,6.76486 -2.62791,-6.488 m 1.89881,6.77999 -5.15375,-13.01687 m 4.42237,13.30312 -2.52567,-6.52847 m 1.79207,6.80897 -2.47432,-6.54811 m 1.73855,6.82284 -2.42282,-6.56734 m 1.6849,6.83629 -4.74233,-13.17233 m 4.00233,13.43547 -2.31937,-6.60459 m 1.57732,6.86191 -2.26742,-6.6226 m 1.52338,6.87408 -2.21534,-6.6402 m 1.46934,6.88583 -4.32624,-13.31479 m 3.57834,13.55456 -2.11077,-6.67418 m 1.361,6.90806 -2.05828,-6.69055 m 1.30671,6.91854 -2.00568,-6.70651 m 1.25233,6.92859 -3.90587,-13.44411 m 3.15081,13.66026 -1.90009,-6.73718 m 1.14335,6.9474 -1.84712,-6.7519 m 1.08875,6.95617 -1.79403,-6.7662 m 1.03408,6.96451 -3.48166,-13.56017 m 2.72018,13.7525 -1.68753,-6.79355 m 0.92456,6.97989 -1.63412,-6.80659 m 0.86971,6.98694 -1.58061,-6.81922 m 0.8148,6.99356 -3.054,-13.66284 m 2.28686,13.83115 -1.47331,-6.8432 m 0.70486,7.00549 -1.41951,-6.85456 m 0.64981,7.01081 -1.36563,-6.8655 m 0.59473,7.01569 -2.62334,-13.75202 m 1.85129,13.89616 -1.25763,-6.8861 m 0.48446,7.02417 -1.2035,-6.89576 m 0.42928,7.02776 -1.14931,-6.90501 m 0.37407,7.03091 -2.19009,-13.82763 m 1.41388,13.94745 -1.0407,-6.92221 m 0.26358,7.03593 -0.9863,-6.93017 m 0.20831,7.03777 -0.93184,-6.93769 m 0.15303,7.03919 -1.75466,-13.88961 m 0.97508,13.98499 -0.82276,-6.95148 m 0.0425,7.04073 -0.76814,-6.95773 m -0.0128,7.04084 -0.71348,-6.96354 m -0.0681,7.04053 -1.31751,-13.93787 m 0.53532,14.00871 -0.60401,-6.9739 m -0.17872,7.03859 -0.54921,-6.97842 m -0.234,7.03697 -0.49439,-6.98252 m -0.28926,7.03491 -0.87906,-13.97237 m 0.095,14.01861 -0.38465,-6.98942 m -0.39972,7.0295 -0.32975,-6.99223 m -0.45492,7.02614 -0.27482,-6.9946 m -0.51008,7.02236 -0.43975,-13.9931 m -0.34535,14.01468 -0.16492,-6.99805 m -0.62033,7.01347 -0.10995,-6.99913 m -0.67539,7.00839 -0.055,-6.99979 m -0.73041,7.00287 0,-14 m -0.78539,13.99692 0.055,-6.99979 m -0.84032,6.99053 0.10995,-6.99913 m -0.8952,6.98371 0.16492,-6.99805 m -0.95002,6.97647 0.43976,-13.9931 m -1.22466,13.96534 0.27482,-6.9946 m -1.05948,6.96069 0.32974,-6.99223 m -1.114117,6.95215 0.384651,-6.98942 m -1.168685,6.94318 0.879067,-13.97237 m -1.662714,13.91998 0.494389,-6.98252 m -1.2776,6.92397 0.549214,-6.97842 m -1.331941,6.91373 0.604005,-6.97389 m -1.3862,6.90305 1.317517,-13.93787 m -2.099131,13.86088 0.713471,-6.96354 m -1.494456,6.88043 0.76814,-6.95773 m -1.548449,6.86848 0.822762,-6.95148 m -1.602346,6.8561 1.754666,-13.88961 m -2.533476,13.78811 0.931849,-6.93769 m -1.709838,6.83009 0.986308,-6.93017 m -1.763429,6.81645 1.040707,-6.92221 m -1.81691,6.80239 2.190083,-13.82763 m -2.965321,13.70173 1.149308,-6.90501 m -1.923533,6.77301 1.203503,-6.89576 m -1.976668,6.75769 1.257625,-6.8861 m -2.029682,6.74197 2.623339,-13.75203 m -3.394239,13.60183 1.365632,-6.8655 m -2.13533,6.70925 1.419511,-6.85456 m -2.187957,6.69227 1.473302,-6.8432 m -2.24045,6.67489 3.054005,-13.66284 m -3.819808,13.4885 1.580609,-6.81921 m -2.345019,6.63886 1.634118,-6.80659 m -2.397087,6.62025 1.687525,-6.79355 m -2.449008,6.60122 3.481658,-13.56017 m -4.241607,13.36186 1.794026,-6.7662 m -2.552393,6.56193 1.847111,-6.7519 m -2.603851,6.54168 1.900083,-6.73718 m -2.655149,6.52103 3.905876,-13.44411 m -4.659221,13.22203 2.005672,-6.70651 m -2.757249,6.47852 2.058282,-6.69055 m -2.808045,6.45667 2.110765,-6.67418 m -2.858669,6.43441 4.326238,-13.31479 m -5.072235,13.06916 2.215339,-6.6402 m -2.959384,6.38872 2.267422,-6.6226 m -3.009469,6.36528 2.319365,-6.60459 m -3.059368,6.34145 4.742331,-13.17233 m -5.480245,12.90338 2.422819,-6.56734 m -3.158598,6.29261 2.474324,-6.5481 m -3.207922,6.2676 2.525676,-6.52847 m -3.257048,6.24222 5.153743,-13.01687 m -5.882845,12.72488 2.627909,-6.488 m -3.354695,6.19029 2.678784,-6.46715 m -3.40321,6.16375 2.729494,-6.44592 m -3.451514,6.13683 5.56007,-12.84856 m -6.279641,12.53382 2.830405,-6.40225 m -3.547481,6.08186 2.8806,-6.37982 m -3.595138,6.05381 2.930618,-6.357 m -3.642573,6.02539 5.96091,-12.66758 m -6.670239,12.33038 3.030108,-6.31018 m -3.736767,5.96743 3.079574,-6.2862 m -3.783519,5.9379 3.12885,-6.26181 m -3.830038,5.908 6.355867,-12.47409 m -7.054255,12.11479 3.226821,-6.2119 m -3.922365,5.84711 3.275509,-6.18636 m -3.968166,5.81613 3.323994,-6.16044 m -4.013723,5.78478 6.744552,-12.2683 m -7.431308,11.88723 3.420348,-6.10747 m -4.104091,5.72102 3.468211,-6.08042 m -4.148898,5.68861 3.515859,-6.05299 m -4.193447,5.65585 7.12658,-12.05039 m -7.801028,11.64794 3.610501,-5.99702 m -4.281768,5.58929 3.65749,-5.96848 m -4.325533,5.55548 3.704253,-5.93957 m -4.369033,5.52134 7.501575,-11.82059 m -8.163049,11.39716 3.797091,-5.88066 m -4.455219,5.45204 3.84316,-5.85065 m -4.497902,5.41687 3.888992,-5.82029 m -4.540306,5.38139 7.869167,-11.57913 m -8.517014,11.13512 3.979933,-5.75848 m -4.624273,5.3094 4.025036,-5.72705 m -4.66583,5.27293 4.069893,-5.69526 m -4.707099,5.23611 8.228993,-11.32624 m -8.862575,10.8621 4.158848,-5.63063 m -4.788764,5.16154 4.202942,-5.5978 m -4.829154,5.12377 4.246776,-5.56461 m -4.869247,5.08567 8.580699,-11.06217 m -9.199388,10.57836 4.333657,-5.49721 m -4.948528,5.00856 4.376699,-5.46301 m -4.987713,4.96954 4.41947,-5.42847 m -5.026589,4.93022 8.923936,-10.78718 m -9.527124,10.28418 4.504191,-5.35838 m -5.103409,4.85066 4.546136,-5.32284 m -5.141348,4.81042 4.587801,-5.28697 m -5.178971,4.7699 9.258366,-10.50156 m -9.845456,9.97986 4.670279,-5.21426 m -5.253254,4.68796 4.711088,-5.17742 m -5.289911,4.64656 4.751605,-5.14026 m -5.326241,4.60487 9.583659,-10.20556 m -10.154072,9.66568 4.831758,-5.06499 m -5.397914,4.52064 4.87139,-5.02688 m -5.433253,4.4781 4.91072,-4.98847 m -5.468255,4.4353 9.899494,-9.8995 m -10.452668,9.34196 4.988469,-4.91072 m -5.537247,4.34886 5.026884,-4.87139 m -5.571232,4.30523 5.064988,-4.83175 m -5.604873,4.26134 10.205561,-9.58366 m -10.740949,9.00903 5.140257,-4.75161 m -5.671116,4.17278 5.177418,-4.71109 m -5.703714,4.12812 5.214258,-4.67028 m -5.735959,4.08319 10.501555,-9.25837 m -11.01863,8.6672 5.286973,-4.5878 m -5.799388,3.99259 5.322842,-4.54614 m -5.830567,3.94692 5.358383,-4.50419 m -5.861386,3.901 10.787186,-8.92394 m -11.285436,8.31682 5.42847,-4.41947 m -5.921936,3.80846 5.463013,-4.3767 m -5.951665,3.76183 5.497218,-4.33366 m -5.981027,3.71497 11.06217,-8.5807 m -11.541104,7.95823 5.564611,-4.24678 m -6.038641,3.62056 5.597792,-4.20294 m -6.06689,3.57303 5.630629,-4.15885 m -6.094765,3.52527 11.326238,-8.229 m -11.785383,7.59179 5.695259,-4.06989 m -6.149386,3.4291 5.727048,-4.02504 m -6.176128,3.3807 5.758483,-3.97994 m -6.202489,3.33209 11.579128,-7.86917 m -12.018032,7.21785 5.820288,-3.88899 m -6.254063,3.23425 5.850652,-3.84316 m -6.279271,3.18503 5.880655,-3.79709 m -6.304092,3.13562 11.820591,-7.50157 m -12.23882,6.83679 5.939572,-3.70425 m -6.352567,3.03621 5.968481,-3.65749 m -6.376216,2.98622 5.997022,-3.6105 m -6.399473,2.93605 12.050388,-7.12658 m -12.44753,6.44899 6.052995,-3.51585 m -6.444802,2.83517 6.080421,-3.46821 m -6.46687,2.78447 6.107472,-3.42035 m -6.48854,2.73359 12.268294,-6.74455 m -12.643955,6.05482 6.160443,-3.32399 m -6.530677,2.63133 6.18636,-3.27551 m -6.551141,2.57997 6.211894,-3.22682 m -6.571202,2.52843 12.474091,-6.35587 m -12.827903,5.65468 6.261813,-3.12885 m -6.610106,2.42491 6.286193,-3.07958 m -6.628947,2.37292 6.310186,-3.03011 m -6.64738,2.32078 12.667579,-5.96091 m -12.999191,5.24895 6.357002,-2.93061 m -6.683012,2.21608 6.379823,-2.8806 m -6.700212,2.16352 6.402251,-2.8304 m -6.716997,2.11083 12.848565,-5.56007 m -13.157651,4.83805 6.445919,-2.72949 m -6.749324,2.00506 6.467157,-2.67878 m -6.764863,1.952 6.487996,-2.62791 m -6.779985,1.89881 13.016871,-5.15375 m -13.303125,4.42237 6.528473,-2.52567 m -6.808974,1.79208 6.548108,-2.47433 m -6.822838,1.73855 6.567339,-2.42282 m -6.836283,1.6849 13.172331,-4.74233 m -13.43547,4.00233 6.604585,-2.31937 m -6.861905,1.57732 6.622598,-2.26742 m -6.8740811,1.52338 6.6402011,-2.21534 m -6.8858333,1.46934 13.3147913,-4.32624 m -13.5545569,3.57834 6.6741789,-2.11077 m -6.9080632,1.361 6.6905512,-2.05828 m -6.9185397,1.30671 6.7065107,-2.00568 m -6.9285893,1.25233 13.4441113,-3.90587 m -13.6602664,3.15081 6.7371864,-1.90009 m -6.9474046,1.14335 6.7519016,-1.84712 m -6.95617,1.08875 6.766201,-1.79403 m -6.9645069,1.03408 13.5601639,-3.48166 m -13.7524951,2.72018 6.7935451,-1.68753 m -6.9798898,0.92456 6.8065898,-1.63412 m -6.9869365,0.86971 6.8192135,-1.58061 m -6.993551,0.81481 13.662835,-3.05401 m -13.8311526,2.28686 6.8431996,-1.47331 m -7.0054869,0.70486 6.8545599,-1.41951 m -7.0108069,0.64981 6.8654969,-1.36563 m -7.0156939,0.59473 13.7520219,-2.62334 m -13.8961597,1.85129 6.8861007,-1.25763 m -7.0241705,0.48446 6.8957655,-1.2035 m -7.0277586,0.42928 6.9050046,-1.14931 m -7.0309129,0.37407 13.8276369,-2.19008 m -13.9474528,1.41387 6.9222058,-1.0407 m -7.0359217,0.26358 6.9301657,-0.9863 m -7.0377747,0.20832 6.9376987,-0.93185 m -7.0391941,0.15303 13.8896061,-1.75466 m -13.9849816,0.97508 6.9514796,-0.82276 m -7.0407295,0.0425 6.9577265,-0.76814 m -7.0408451,-0.0128 6.9635451,-0.71347 m -7.0405274,-0.0681 13.9378674,-1.31751 m -14.0087086,0.53532 6.9738926,-0.60401 m -7.0385884,-0.17872 6.9784214,-0.54921 m -7.0369676,-0.234 6.9825196,-0.49439 m -7.0349129,-0.28926 13.9723739,-0.87906 m -14.0186108,0.095 6.9894238,-0.38465 m -7.0295015,-0.39972 6.9922295,-0.32975 m -7.0261457,-0.45492 6.9946037,-0.27482 m -7.0223561,-0.51008 13.9930921,-0.43975 m -14.0146791,-0.34535 6.9980571,-0.16492 m -7.0134773,-0.62033 6.9991363,-0.10995 m -7.0083889,-0.67539 6.9997839,-0.055 m -7.0028681,-0.73041 14.0000001,0 m -13.9969158,-0.78539 6.9997838,0.055 m -6.9905313,-0.84032 6.9991363,0.10995 m -6.9837161,-0.8952 6.9980571,0.16492 m -6.9764701,-0.95001 13.9930921,0.43975 M 4.8898864,140.2774 11.88449,140.55222 m -6.9606875,-1.05948 6.9922295,0.32974 m -6.9521517,-1.11412 6.9894237,0.38465 m -6.9431868,-1.16868 13.9723738,0.87907 m -13.9199806,-1.66272 6.9825196,0.49439 m -6.9239733,-1.2776 6.9784213,0.54922 m -6.9137255,-1.33195 6.9738925,0.60401 m -6.9030513,-1.3862 13.9378673,1.31752 m -13.860885,-2.09913 6.963545,0.71347 m -6.8804264,-1.49446 6.9577264,0.76814 m -6.8684765,-1.54845 6.9514795,0.82276 m -6.8561039,-1.60234 13.8896059,1.75466 m -13.7881105,-2.53347 6.9376985,0.93185 m -6.8300895,-1.70984 6.9301655,0.98631 m -6.8164496,-1.76343 6.9222056,1.04071 m -6.8023898,-1.81691 13.8276368,2.19008 m -13.7017284,-2.96532 6.9050044,1.14931 m -6.7730113,-1.92354 6.8957653,1.20351 m -6.7576956,-1.97667 6.8861006,1.25762 m -6.7419627,-2.02968 13.7520217,2.62334 m -13.6018247,-3.39424 6.8654967,1.36563 m -6.7092497,-2.13533 6.8545597,1.41951 m -6.6922724,-2.18795 6.8431994,1.4733 m -6.6748818,-2.24045 13.6628348,3.054 m -13.4884972,-3.81981 6.8192132,1.58061 m -6.6388666,-2.34501 6.8065896,1.63411 m -6.6202449,-2.39708 6.7935449,1.68752 m -6.6012136,-2.44901 13.5601646,3.48166 m -13.3618587,-4.24161 6.7662007,1.79403 m -6.5619323,-2.55239 6.7519023,1.84711 m -6.5416841,-2.60385 6.7371871,1.90008 m -6.521032,-2.65515 13.444112,3.90588 m -13.2220334,-4.65922 6.7065104,2.00567 m -6.4785219,-2.75725 6.6905509,2.05828 m -6.4566666,-2.80804 6.6741796,2.11076 m -6.434414,-2.85867 13.314791,4.32624 m -13.0691588,-5.07223 6.6402018,2.21533 m -6.388718,-2.95938 6.622597,2.26742 m -6.365278,-3.00947 6.604585,2.31937 m -6.341445,-3.05937 13.17233,4.74233 m -12.903387,-5.48024 6.567339,2.42282 m -6.292608,-3.1586 6.548108,2.47432 m -6.267608,-3.20792 6.528474,2.52568 m -6.24222,-3.25705 13.016871,5.15374 m -12.724882,-5.88285 6.487996,2.62791 m -6.190289,-3.35469 6.467156,2.67878 m -6.163751,-3.40321 6.445918,2.7295 m -6.136833,-3.45152 12.848565,5.56007 m -12.533818,-6.27964 6.40225,2.83041 m -6.081862,-3.54748 6.379823,2.8806 m -6.053812,-3.59514 6.357002,2.93062 m -6.02539,-3.64258 12.667578,5.96091 m -12.330385,-6.67024 6.310186,3.03011 m -5.967432,-3.73677 6.286193,3.07958 m -5.937899,-3.78352 6.261812,3.12885 m -5.908,-3.830038 12.474091,6.355868 m -12.114784,-7.054256 6.211894,3.226826 m -5.847112,-3.922369 6.186359,3.275509 m -5.816126,-3.968167 6.160443,3.323997 m -5.784781,-4.013725 12.268293,6.744555 m -11.887226,-7.431312 6.107472,3.420349 m -5.721022,-4.104092 6.08042,3.468211 m -5.688613,-4.148897 6.052994,3.515859 m -5.655853,-4.193448 12.050389,7.12658 m -11.647938,-7.801028 5.997023,3.610502 m -5.589287,-4.281768 5.968481,3.65749 m -5.555486,-4.325534 5.939571,3.704253 m -5.521342,-4.369032 11.82059,7.501575 m -11.397153,-8.16305 5.880655,3.797091 m -5.452036,-4.455219 5.850651,3.84316 m -5.416876,-4.497901 5.820287,3.888992 m -5.381383,-4.540307 11.579128,7.869168 m -11.135123,-8.517015 5.758484,3.979933 m -5.309404,-4.624273 5.727048,4.025037 m -5.272921,-4.66583 5.695259,4.069892 m -5.236113,-4.707099 11.326238,8.228994 m -10.862102,-8.862575 5.630629,4.158847 m -5.161532,-4.788763 5.597793,4.202941 m -5.123762,-4.829154 5.56461,4.246777 m -5.085676,-4.869247 11.06217,8.580699 m -10.578362,-9.199389 5.497219,4.333658 m -5.008566,-4.948528 5.463012,4.376698 m -4.969546,-4.987712 5.42847,4.419469 m -4.93022,-5.026589 10.787185,8.923936 m -10.284182,-9.527123 5.358382,4.504191 m -4.850657,-5.10341 5.322841,4.546137 m -4.810426,-5.141349 5.286973,4.587802 m -4.769899,-5.178971 10.501555,9.258366 m -9.979853,-9.845456 5.214258,4.670279 m -4.687962,-5.253254 5.177417,4.711088 m -4.646559,-5.289911 5.140258,4.751605 m -4.604869,-5.326241 10.20556,9.58366 m -9.665675,-10.154074 5.064988,4.831759 m -4.52064,-5.397914 5.026884,4.871389 m -4.478106,-5.433252 4.988469,4.91072 m -4.435296,-5.468256 9.899495,9.899495 M 34.659649,72.939531 39.570369,77.928 m -4.348857,-5.537247 4.871389,5.026884 m -4.305234,-5.571232 4.831759,5.064988 M 36.358081,71.30652 45.94174,81.512081 m -9.009023,-10.740949 4.751605,5.140257 m -4.172782,-5.671116 4.711088,5.177418 m -4.128113,-5.703714 4.670279,5.214258 m -4.083189,-5.735959 9.258366,10.501555 m -8.667197,-11.01863 4.587802,5.286973 m -3.992589,-5.799388 4.546136,5.322842 m -3.946918,-5.830567 4.504191,5.358383 m -3.901003,-5.861386 8.923935,10.787186 m -8.316816,-11.285436 4.419469,5.428471 m -3.808455,-5.921937 4.376698,5.463013 m -3.761827,-5.951665 4.333657,5.497218 m -3.714968,-5.981027 8.580699,11.062171 m -7.958228,-11.541105 4.246776,5.564611 m -3.620564,-6.038641 4.202942,5.597793 m -3.573026,-6.066891 4.158848,5.63063 m -3.525267,-6.094766 8.228994,11.326238 m -7.591787,-11.785383 4.069892,5.695259 m -3.429099,-6.149386 4.025037,5.727048 m -3.380696,-6.176128 3.979932,5.758484 m -3.332085,-6.20249 7.869167,11.579129 m -7.217853,-12.018032 3.888992,5.820287 m -3.23425,-6.254062 3.843159,5.850651 m -3.185031,-6.279271 3.797091,5.880655 m -3.135617,-6.304092 7.501575,11.820591 m -6.836795,-12.23882 3.704252,5.939572 m -3.036209,-6.352567 3.65749,5.968482 m -2.986223,-6.376217 3.610501,5.997023 M 53.90865,58.12918 61.03523,70.179569 m -6.448992,-12.44753 3.515859,6.052994 m -2.835172,-6.444801 3.46821,6.08042 m -2.784467,-6.46687 3.420348,6.107472 m -2.733592,-6.488539 6.744552,12.268294 m -6.054823,-12.643956 3.323994,6.160443 m -2.631337,-6.530676 3.275509,6.18636 m -2.579965,-6.551142 3.226821,6.211895 m -2.528433,-6.571202 6.355867,12.474091 m -5.654679,-12.827903 3.12885,6.261813 m -2.424905,-6.610106 3.079574,6.286193 m -2.372915,-6.628948 3.030108,6.310186 m -2.320779,-6.647379 5.960909,12.667579 m -5.248954,-12.999191 2.930618,6.357002 m -2.21608,-6.683013 2.8806,6.379823 m -2.163524,-6.700211 2.830405,6.40225 m -2.110834,-6.716996 5.56007,12.848564 m -4.83805,-13.15765 2.729494,6.445919 m -2.005068,-6.749324 2.678783,6.467157 m -1.951997,-6.764863 2.627909,6.487996 m -1.898807,-6.779985 5.153743,13.016871 m -4.422371,-13.303125 2.525676,6.528473 m -1.792078,-6.808974 2.474324,6.548108 m -1.738545,-6.822838 2.422819,6.567339 M 70.939,50.115306 75.68133,63.287637 m -4.002327,-13.43547 2.319365,6.604585 m -1.577318,-6.861905 2.267422,6.622598 m -1.523377,-6.874081 2.215339,6.640201 m -1.469342,-6.885833 4.326238,13.314791 m -3.578334,-13.554557 2.110765,6.674179 m -1.361002,-6.908063 2.058282,6.690551 m -1.306704,-6.91854 2.005671,6.706511 m -1.252327,-6.928589 3.905875,13.444112 M 77.668747,47.95786 79.56883,54.695047 m -1.143343,-6.947405 1.847111,6.751902 m -1.088744,-6.956171 1.794026,6.766201 m -1.034077,-6.964507 3.481658,13.560165 m -2.720175,-13.752496 1.687525,6.793546 m -0.924556,-6.97989 1.634118,6.806589 m -0.869708,-6.986936 1.580609,6.819214 m -0.814806,-6.993552 3.054005,13.662835 m -2.286857,-13.831152 1.473302,6.843199 m -0.704856,-7.005486 1.419511,6.854559 m -0.649813,-7.010806 1.365632,6.865497 M 86.07466,45.974659 88.697998,59.72668 m -1.851281,-13.896159 1.257625,6.8861 m -0.48446,-7.02417 1.203503,6.895765 m -0.429278,-7.027758 1.149308,6.905005 m -0.37407,-7.030913 2.190083,13.827636 m -1.41388,-13.947452 1.040707,6.922205 m -0.263586,-7.035921 0.986308,6.930166 m -0.208319,-7.037775 0.931849,6.937698 m -0.153039,-7.039193 1.754665,13.889605 m -0.975081,-13.984981 0.822762,6.951479 m -0.04245,-7.040729 0.76814,6.957727 m 0.01284,-7.040845 0.713471,6.963545 m 0.06814,-7.040528 1.317517,13.937868 m -0.535322,-14.008709 0.604005,6.973893 m 0.178722,-7.038589 0.549214,6.978422 m 0.233997,-7.036968 0.494389,6.98252 m 0.289258,-7.034913 0.879067,13.972374 m -0.09503,-14.018611 0.384651,6.989424 m 0.399725,-7.029502 0.32974,6.99223 m 0.45492,-7.026146 0.27482,6.994604 m 0.51009,-7.022356 0.43975,13.993092 m 0.34535,-14.014679 0.16491,6.998057 m 0.62033,-7.013477 0.10995,6.999136 m 0.67539,-7.008389 0.055,6.999784 m 0.73041,-7.002868 0,14 m 0.78539,-13.996916 -0.055,6.999784 m 0.84032,-6.990531 -0.10995,6.999136 m 0.8952,-6.983716 -0.16492,6.998057 m 0.95002,-6.97647 -0.43975,13.993092 m 1.22465,-13.96534 -0.27482,6.994604 m 1.05949,-6.960687 -0.32975,6.992229 m 1.11412,-6.952152 -0.38465,6.989424 m 1.16868,-6.943187 -0.87906,13.972374 m 1.66271,-13.919981 -0.49439,6.98252 m 1.2776,-6.923973 -0.54921,6.978421 m 1.33194,-6.913726 -0.60401,6.973893 m 1.3862,-6.903051 -1.31751,13.937867 m 2.09913,-13.860885 -0.71347,6.963545 m 1.49445,-6.880426 -0.76814,6.957726 m 1.54845,-6.868476 -0.82276,6.951479 m 1.60235,-6.856104 -1.75467,13.889606 m 2.53348,-13.788111 -0.93185,6.937699 m 1.70983,-6.83009 -0.9863,6.930166 m 1.76343,-6.81645 -1.04071,6.922206 m 1.81691,-6.80239 -2.19008,13.827637 m 2.96532,-13.701728 -1.14931,6.905004 m 1.92353,-6.773011 -1.2035,6.895765 m 1.97667,-6.757696 -1.25763,6.886101 m 2.02968,-6.741963 -2.62334,13.752022 m 3.39424,-13.601825 -1.36563,6.865497 m 2.13533,-6.70925 -1.41951,6.85456 m 2.18796,-6.692272 -1.4733,6.843199 m 2.24045,-6.674882 -3.05401,13.662835 m 3.81981,-13.488497 -1.58061,6.819213 m 2.34502,-6.638867 -1.63412,6.80659 m 2.39709,-6.620245 -1.68753,6.793545 m 2.44901,-6.601214 -3.48166,13.560164 m 4.24161,-13.361858 -1.79403,6.766201 m 2.5524,-6.561932 -1.84711,6.751901 m 2.60385,-6.541683 -1.90009,6.737186 m 2.65515,-6.521031 -3.90587,13.444111 m 4.65922,-13.222032 -2.00568,6.70651 m 2.75725,-6.478522 -2.05828,6.690551 m 2.80805,-6.456667 -2.11077,6.674179 m 2.85867,-6.434413 -4.32624,13.314791 m 5.07224,-13.069159 -2.21534,6.640201 m 2.95938,-6.388717 -2.26742,6.622597 m 3.00947,-6.365278 -2.31936,6.604585 m 3.05936,-6.341445 -4.74233,13.17233 m 5.48025,-12.903387 -2.42282,6.567339 m 3.1586,-6.292609 -2.47433,6.548109 m 3.20792,-6.267608 -2.52567,6.528473 m 3.25705,-6.242219 -5.15375,13.016871 m 5.88285,-12.724882 -2.62791,6.487996 m 3.35469,-6.19029 -2.67878,6.467157 m 3.40321,-6.163751 -2.72949,6.445918 m 3.45151,-6.136833 -5.56007,12.848565 m 6.27964,-12.533818 -2.8304,6.40225 m 3.54748,-6.081862 -2.8806,6.379823 m 3.59514,-6.053813 -2.93062,6.357002 m 3.64257,-6.02539 -5.96091,12.667579 m 6.67024,-12.330385 -3.03011,6.310186 m 3.73677,-5.967432 -3.07958,6.286193 m 3.78352,-5.937899 -3.12885,6.261812 m 3.83004,-5.908001 -6.35587,12.474092 m 7.05426,-12.114784 -3.22682,6.211894 m 3.92236,-5.847112 -3.27551,6.186359 m 3.96817,-5.816126 -3.32399,6.160443 m 4.01372,-5.784781 -6.74455,12.268293 m 7.43131,-11.887226 -3.42035,6.107472 m 4.10409,-5.721023 -3.46821,6.080421 m 4.14889,-5.688613 -3.51585,6.052994 m 4.19344,-5.655853 -7.12658,12.050388 m 7.80103,-11.647937 -3.6105,5.997022 m 4.28177,-5.589287 -3.65749,5.968481 m 4.32553,-5.555486 -3.70425,5.939572 m 4.36903,-5.521343 -7.50157,11.820591 m 8.16304,-11.397154 -3.79709,5.880655 m 4.45522,-5.452035 -3.84316,5.850651 m 4.4979,-5.416876 -3.88899,5.820287 m 4.54031,-5.381384 -7.86917,11.579128 m 8.51702,-11.135122 -3.97994,5.758484 m 4.62428,-5.309404 -4.02504,5.727048 m 4.66583,-5.272921 -4.06989,5.695259 m 4.7071,-5.236114 -8.229,11.326238 m 8.86258,-10.862102 -4.15885,5.63063 m 4.78876,-5.161532 -4.20294,5.597793 m 4.82916,-5.123762 -4.24678,5.56461 m 4.86925,-5.085676 -8.5807,11.06217 m 9.19939,-10.578362 -4.33366,5.497218 m 4.94853,-5.008566 -4.3767,5.463013 m 4.98771,-4.969546 -4.41947,5.42847 m 5.02659,-4.93022 -8.92394,10.787185 m 9.52713,-10.284182 -4.50419,5.358382 m 5.10341,-4.850658 -4.54614,5.322842 m 5.14135,-4.810426 -4.5878,5.286972 m 5.17897,-4.769898 -9.25837,10.501555 m 9.84546,-9.979854 -4.67028,5.214259 m 5.25325,-4.687963 -4.71109,5.177418 m 5.28992,-4.646559 -4.75161,5.140258 m 5.32624,-4.60487 -9.58366,10.205561 m 10.15408,-9.665676 -4.83176,5.064988 m 5.39791,-4.52064 -4.87139,5.026884 m 5.43325,-4.478106 -4.91072,4.98847 m 5.46826,-4.435296 -9.8995,9.899495 m 10.45267,-9.34196 -4.98847,4.91072 m 5.53725,-4.348857 -5.02688,4.87139 m 5.57123,-4.305234 -5.06499,4.831759 m 5.60487,-4.261346 -10.20556,9.58366 m 10.74095,-9.009024 -5.14026,4.751606 m 5.67112,-4.172782 -5.17742,4.711087 m 5.70372,-4.128113 -5.21426,4.67028 m 5.73596,-4.083189 -10.50156,9.258365 m 11.01863,-8.667196 -5.28697,4.587801 m 5.79939,-3.992589 -5.32284,4.546136 m 5.83056,-3.946917 -5.35838,4.504191 m 5.86139,-3.901004 -10.78719,8.923936 m 11.28544,-8.316816 -5.42848,4.419469 m 5.92194,-3.808456 -5.46301,4.376699 m 5.95166,-3.761828 -5.49721,4.333658 m 5.98102,-3.714968 -11.06217,8.580698 m 11.54111,-7.958228 -5.56461,4.246776 m 6.03864,-3.620563 -5.5978,4.202941 m 6.06689,-3.573025 -5.63063,4.158847 m 6.09477,-3.525266 -11.32624,8.228993 m 11.78539,-7.591786 -5.69526,4.069892 m 6.14938,-3.429099 -5.72705,4.025037 m 6.17613,-3.380697 -5.75848,3.979933 m 6.20249,-3.332086 -11.57913,7.869167 m 12.01803,-7.217852 -5.82029,3.888991 m 6.25407,-3.23425 -5.85065,3.84316 m 6.27927,-3.185032 -5.88066,3.797091 m 6.30409,-3.135616 -11.82059,7.501575 m 12.23882,-6.836796 -5.93957,3.704253 m 6.35257,-3.036209 -5.96848,3.65749 m 6.37621,-2.986224 -5.99702,3.610502 m 6.39947,-2.936053 -12.05039,7.126576 m 12.44753,-6.448988 -6.05299,3.515858 m 6.4448,-2.835172 -6.08042,3.468211 m 6.46687,-2.784468 -6.10747,3.420349 m 6.48854,-2.733592 -12.26829,6.744552 m 12.64395,-6.054824 -6.16044,3.323994 m 6.53067,-2.631336 -6.18636,3.275506 m 6.55115,-2.579962 -6.2119,3.226822 m 6.5712,-2.528435 -12.47409,6.355865 m 12.8279,-5.654677 -6.26181,3.128847 m 6.61011,-2.4249 -6.28619,3.07957 m 6.62894,-2.37291 -6.31018,3.0301 m 6.64738,-2.32077 -12.66758,5.96091 m 12.99919,-5.24896 -6.357,2.93062 m 6.68301,-2.21608 -6.37982,2.8806 m 6.70021,-2.16352 -6.40225,2.8304 m 6.71699,-2.11083 -12.84856,5.56007 m 13.15765,-4.83805 -6.44592,2.72949 m 6.74932,-2.00507 -6.46715,2.67879 m 6.76486,-1.952 -6.488,2.62791 m 6.77999,-1.89881 -13.01687,5.15374 m 13.30312,-4.42237 -6.52847,2.52568 m 6.80897,-1.79208 -6.5481,2.47432 m 6.82283,-1.73854 -6.56734,2.42282 m 6.83629,-1.68491 -13.17233,4.74233 m 13.43547,-4.00232 -6.60459,2.31936 m 6.86191,-1.57732 -6.6226,2.26743 m 6.87408,-1.52338 -6.6402,2.21534 m 6.88583,-1.46934 -13.31479,4.32623 m 13.55456,-3.57833 -6.67418,2.11076 m 6.90806,-1.361 -6.69055,2.05828 m 6.91854,-1.3067 -6.70651,2.00567 m 6.92859,-1.25233 -13.44411,3.90588 m 13.66026,-3.15081 -6.73718,1.90008 m 6.9474,-1.14334 -6.7519,1.84711 m 6.95617,-1.08874 -6.7662,1.79402 m 6.96451,-1.03407 -13.56017,3.48165 m 13.7525,-2.72017 -6.79355,1.68752 m 6.97989,-0.92455 -6.80659,1.63412 m 6.98694,-0.86971 -6.81921,1.58061 m 6.99355,-0.81481 -13.66284,3.05401 m 13.83115,-2.28686 -6.8432,1.4733 m 7.00549,-0.70485 -6.85456,1.41951 m 7.01081,-0.64982 -6.8655,1.36564 m 7.0157,-0.59474 -13.75203,2.62334 m 13.89616,-1.85128 -6.8861,1.25763 m 7.02417,-0.48446 -6.89576,1.2035 m 7.02776,-0.42928 -6.90501,1.14931 m 7.03091,-0.37407 -13.82763,2.19008 m 13.94745,-1.41388 -6.92221,1.04071 m 7.03593,-0.26359 -6.93017,0.98631 m 7.03777,-0.20832 -6.93769,0.93185 m 7.03919,-0.15304 -13.88961,1.75467 m 13.98499,-0.97508 -6.95148,0.82276 m 7.04073,-0.0425 -6.95773,0.76814 m 7.04084,0.0129 -6.96354,0.71347 m 7.04053,0.0681 -13.93787,1.31752 m 14.00871,-0.53532 -6.97389,0.604 m 7.03858,0.17873 -6.97842,0.54921 m 7.03697,0.234 -6.98252,0.49439 m 7.03491,0.28925 -13.97237,0.87907 m 14.01861,-0.095 -6.98942,0.38465 m 7.0295,0.39972 -6.99223,0.32975 m 7.02614,0.45491 -6.9946,0.27482 m 7.02236,0.51009 -13.9931,0.43975 m 14.01468,0.34535 -6.99805,0.16492 m 7.01347,0.62032 -6.99913,0.10995 m 7.00839,0.67539 -6.99979,0.055 m 7.00287,0.73041 -14,0"
       inkscape:path-effect="#path-effect875"
       inkscape:original-d="m 204.81279,144.20338 a 100,100 0 0 1 -100,100 100,100 0 0 1 -100.0000001,-100 100,100 0 0 1 100.0000001,-99.999996 100,100 0 0 1 100,99.999996 z" />
  </g>
</svg>
